<svg width="28" height="18" viewBox="0 0 28 18" fill="none" xmlns="http://www.w3.org/2000/svg">
<path d="M1.63281 2.9989C1.63281 1.82745 2.58637 0.873901 3.75778 0.873901H24.7576C25.929 0.873901 26.8825 1.82745 26.8825 2.9989V5.95582C26.8713 5.9673 26.8537 5.98241 26.8287 5.99843C26.8003 6.01665 26.7674 6.03273 26.733 6.04474L27.0215 6.87053L26.7357 6.04381C25.5119 6.46692 24.6326 7.63095 24.6326 8.99889C24.6326 10.3659 25.5108 11.5293 26.7333 11.9531C26.7676 11.9652 26.8004 11.9812 26.8287 11.9994C26.8537 12.0154 26.8713 12.0305 26.8825 12.042V14.9989C26.8825 16.1703 25.929 17.1239 24.7576 17.1239H3.75778C2.58637 17.1239 1.63281 16.1703 1.63281 14.9989V12.042C1.64403 12.0305 1.66163 12.0154 1.68663 11.9994C1.71486 11.9813 1.74749 11.9653 1.78161 11.9533C3.00435 11.5296 3.88279 10.3661 3.88279 8.99889C3.88279 7.6316 3.00426 6.46803 1.78142 6.04441C1.74737 6.03243 1.71481 6.01648 1.68663 5.99843C1.66163 5.98241 1.64403 5.9673 1.63281 5.95582V2.9989Z" stroke="#9B794C" stroke-width="1.75"/>
</svg>
