<svg width="18" height="22" viewBox="0 0 18 22" fill="none" xmlns="http://www.w3.org/2000/svg">
<path d="M8.64599 14.3677C9.06513 14.3677 9.42579 14.0168 9.42579 13.6074V3.59681L9.3673 2.13469L10.0204 2.82676L11.502 4.40585C11.6385 4.56181 11.8334 4.63979 12.0284 4.63979C12.428 4.63979 12.7399 4.34736 12.7399 3.94772C12.7399 3.74302 12.6522 3.58706 12.506 3.44085L9.21135 0.263181C9.0164 0.0682322 8.85069 0 8.64599 0C8.45104 0 8.28534 0.0682322 8.08064 0.263181L4.786 3.44085C4.63979 3.58706 4.56181 3.74302 4.56181 3.94772C4.56181 4.34736 4.85423 4.63979 5.26363 4.63979C5.44883 4.63979 5.66327 4.56181 5.79974 4.40585L7.2716 2.82676L7.93443 2.13469L7.87594 3.59681V13.6074C7.87594 14.0168 8.22685 14.3677 8.64599 14.3677ZM3.0607 22H14.241C16.2782 22 17.3017 20.9863 17.3017 18.9783V9.25033C17.3017 7.24236 16.2782 6.22862 14.241 6.22862H11.5215V7.79796H14.2118C15.1768 7.79796 15.7324 8.32432 15.7324 9.33806V18.8906C15.7324 19.9043 15.1768 20.4307 14.2118 20.4307H3.0802C2.10545 20.4307 1.56934 19.9043 1.56934 18.8906V9.33806C1.56934 8.32432 2.10545 7.79796 3.0802 7.79796H5.78024V6.22862H3.0607C1.02348 6.22862 0 7.24236 0 9.25033V18.9783C0 20.9863 1.02348 22 3.0607 22Z" fill="#007AFF"/>
</svg>
