<svg width="31" height="24" viewBox="0 0 31 24" fill="none" xmlns="http://www.w3.org/2000/svg">
<g clip-path="url(#clip0_4081_12857)">
<path d="M26.6229 5.26254L26.4347 5.08689C22.2049 1.03589 16.6969 1.4907 13.7892 2.12274C12.7802 2.33137 11.793 2.63434 10.8407 3.02767C10.7194 3.08139 10.6155 3.16807 10.5409 3.27786C10.4663 3.38765 10.424 3.51615 10.4188 3.64878C10.4135 3.7814 10.4456 3.91284 10.5113 4.02815C10.577 4.14347 10.6738 4.23805 10.7906 4.30116C11.2438 4.54739 11.4932 4.82184 11.5292 5.11669C11.5935 5.64365 11.0728 6.30078 10.7811 6.58151C9.7252 7.3327 8.7474 8.18808 7.86247 9.13475C7.82481 9.00772 7.78091 8.88224 7.73542 8.75993C8.21063 8.48233 8.59018 7.9836 8.83326 7.30922C9.07636 6.64424 9.34611 5.21706 8.63409 4.58345C8.48095 4.44778 8.28946 4.363 8.08608 4.3408C7.88269 4.31861 7.67742 4.3601 7.49862 4.45955C6.99019 4.71928 6.54768 5.09153 6.20474 5.54798C5.72796 5.30175 4.8936 5.00534 4.06081 5.34096C3.29077 5.64835 3.18882 6.23177 3.18099 6.46702C3.15746 7.21982 3.86947 7.90361 4.54229 8.22042C4.99728 8.43036 5.50277 8.506 5.99928 8.43842C6.37311 9.02996 6.60549 9.69974 6.67837 10.3957C6.68031 10.4446 6.68821 10.493 6.7019 10.54C6.34392 11.0246 6.02256 11.5352 5.74051 12.0675C5.49986 11.6657 5.1531 11.3379 4.73834 11.1203C4.3675 10.9357 3.95285 10.8572 3.5402 10.8934C3.12755 10.9297 2.73294 11.0793 2.39997 11.3257C1.51384 11.9672 0.800263 13.3943 1.20803 14.2726C1.2739 14.4153 1.65031 15.1117 2.6603 14.8576C3.74872 14.591 4.39018 13.6719 4.68972 13.1089C4.88137 13.6265 4.97343 14.1756 4.96105 14.7274C4.96311 14.7743 4.96888 14.821 4.9783 14.867C4.92891 15.6328 4.99232 16.4016 5.1665 17.1489C5.52561 18.7604 6.50558 20.1652 7.89383 21.0588L7.91579 21.0713C9.18614 21.741 10.4722 21.9402 11.7347 21.6657C12.696 21.445 13.5871 20.9878 14.3271 20.3358C15.306 21.0673 16.3985 21.6326 17.561 22.0092C17.572 22.0123 18.7044 22.3903 20.6977 22.3731L20.7557 22.3793C20.7745 22.3809 20.7934 22.3825 20.8122 22.3825L20.8404 22.384C21.457 22.3758 22.0711 22.3059 22.6738 22.1754C26.9804 21.2392 30.0857 17.276 30.0559 12.7498C30.0356 9.91578 28.7213 7.04731 26.6229 5.26254ZM5.90831 6.81833C5.88871 6.93281 5.87926 7.04879 5.88009 7.16493L5.87852 7.28099L5.76246 7.28883C5.72168 7.2904 5.68248 7.29197 5.64327 7.29197C5.43608 7.29484 5.23087 7.25144 5.04258 7.16493C4.78144 7.04618 4.55754 6.85859 4.39488 6.62229L4.32744 6.50781L4.44506 6.44822C4.46272 6.43746 4.4817 6.42903 4.50152 6.42312C4.98771 6.22708 5.55543 6.50468 5.85187 6.68817L5.92401 6.73366L5.90831 6.81833ZM3.80991 12.2338C3.80677 12.2448 3.36292 13.4477 2.42663 13.7112L2.23373 13.766L2.26823 13.5684C2.38728 13.0566 2.67509 12.5998 3.08532 12.2714C3.21494 12.1766 3.3629 12.1098 3.51975 12.0754C3.57544 12.0627 3.63211 12.0549 3.68915 12.0519L3.86323 12.0425L3.80991 12.2338ZM6.84148 6.83872C6.99744 6.36812 7.30596 5.963 7.71817 5.68756L7.90637 5.55268L7.91736 5.78323C7.93307 6.30541 7.81254 6.82268 7.56762 7.28412C7.46514 7.49286 7.30013 7.66445 7.09555 7.77501L6.98735 7.82676L6.93244 7.72012C6.78679 7.44989 6.75409 7.13299 6.84148 6.83872ZM15.0235 17.4344C14.8732 17.8573 14.6526 18.2517 14.371 18.6012L14.2785 18.722L14.1781 18.6059C13.5985 17.9693 13.2284 17.17 13.1179 16.3162C13.1164 16.3083 13.0552 15.6637 13.4002 15.2811C13.5387 15.1265 13.7208 15.0177 13.9225 14.969C14.2471 14.8984 14.564 15.0427 14.8635 15.4002C14.9262 15.4943 15.3873 16.2503 15.0235 17.4344ZM22.3727 20.789C21.8767 20.8967 21.3714 20.9551 20.864 20.9631L20.8012 20.9568C20.7793 20.9553 20.7542 20.9537 20.7306 20.9537H20.7228C18.9992 20.971 18.0158 20.6651 18.0064 20.662C17.043 20.3469 16.1329 19.8874 15.3073 19.2991C15.6699 18.8434 15.9516 18.3288 16.1401 17.7778C16.7063 15.9397 15.8437 14.7572 15.8108 14.7149L15.7857 14.6788C14.989 13.7112 14.1201 13.73 13.6747 13.8272C13.2329 13.9271 12.8333 14.1623 12.5314 14.5C11.835 15.2763 11.9433 16.3318 11.959 16.4495C12.0905 17.5326 12.5533 18.5486 13.2842 19.3587C12.7491 19.8081 12.1147 20.1236 11.4336 20.2793C10.5098 20.4801 9.55313 20.3264 8.59647 19.8261C7.5572 19.1234 6.82476 18.0511 6.54822 16.8274C6.2599 15.6129 6.34351 14.3397 6.78818 13.1732C6.83364 13.0587 7.94873 10.3424 11.6453 7.70914C11.6672 7.69314 11.6882 7.67586 11.708 7.65738C11.8523 7.52722 13.107 6.35097 12.9376 4.94731C12.8933 4.5759 12.7509 4.22297 12.5251 3.92476C13.0301 3.76479 13.5555 3.62521 14.0919 3.50916C17.3054 2.81125 21.8865 2.69519 25.4576 6.11415L25.6615 6.30862L25.6756 6.32117C25.6834 6.32587 25.6897 6.33215 25.6928 6.33371C26.6073 7.12331 27.338 8.10343 27.8336 9.20532C28.3489 10.3205 28.622 11.5323 28.635 12.7607C28.6617 16.6173 26.0285 19.9939 22.3727 20.789Z" fill="#EF6079"/>
<path d="M24.8756 9.38269C24.6403 8.70831 24.2326 8.50913 23.9314 8.46051C23.6805 8.41975 23.1881 8.44483 22.7191 9.05649C22.5699 9.25518 22.4461 9.47171 22.3506 9.70106C21.9462 9.36834 21.4664 9.14 20.9532 9.03609C20.7623 8.99509 20.5641 9.00276 20.3769 9.05839C20.1897 9.11403 20.0196 9.21584 19.882 9.35446C19.5527 9.71204 19.4805 10.319 19.6938 10.94C19.8663 11.4466 20.4858 12.6605 22.5074 13.1153C22.495 13.5158 22.4457 13.9143 22.36 14.3057C22.3386 14.4092 22.3405 14.5161 22.3655 14.6188C22.3904 14.7215 22.4378 14.8174 22.5043 14.8996C22.5707 14.9818 22.6545 15.0482 22.7497 15.0941C22.8449 15.14 22.9491 15.1643 23.0548 15.1651C23.1049 15.1649 23.1549 15.1591 23.2037 15.1479C23.3371 15.119 23.4593 15.0523 23.5558 14.9558C23.6523 14.8593 23.719 14.737 23.7479 14.6037C23.9056 13.9012 23.9574 13.1791 23.9016 12.4613C24.3329 12.0896 25.4261 10.9542 24.8756 9.38269ZM23.5817 9.8532L23.737 9.60384L23.8091 9.88771C23.8612 10.1146 23.8604 10.3504 23.8068 10.5769C23.7532 10.8034 23.6483 11.0146 23.5002 11.1941L23.3465 11.3964L23.279 11.1534C23.1708 10.7628 23.3904 10.159 23.5817 9.85319V9.8532ZM20.7477 10.3566L20.7195 10.1606L20.9093 10.2171C21.6108 10.4886 22.1839 11.0152 22.5137 11.6913L22.6438 11.9579L22.3615 11.8654C21.5241 11.5909 21.121 11.1581 20.9297 10.8428V10.8413C20.8377 10.6933 20.7759 10.5286 20.7477 10.3566V10.3566Z" fill="#EF6079"/>
</g>
<defs>
<clipPath id="clip0_4081_12857">
<rect width="30.5142" height="24" fill="white" transform="translate(0.243164)"/>
</clipPath>
</defs>
</svg>
